<svg xmlns="http://www.w3.org/2000/svg" xmlns:xlink="http://www.w3.org/1999/xlink" version="1.1" width="256" height="256" viewBox="0 0 256 256" xml:space="preserve">
<desc>Created with Fabric.js 1.7.22</desc>
<defs>
</defs>
<g transform="translate(128 128) scale(0.87 0.87)" style="">
	<g style="stroke: none; stroke-width: 0; stroke-dasharray: none; stroke-linecap: butt; stroke-linejoin: miter; stroke-miterlimit: 10; fill: rgb(101,101,102); fill-rule: nonzero; opacity: 1;" transform="translate(-144.89999999999998 -144.90000000000003) scale(3.22 3.22)" >
	<path d="M 45 90 C 20.187 90 0 69.814 0 45 C 0 20.187 20.187 0 45 0 c 24.814 0 45 20.187 45 45 C 90 69.814 69.814 90 45 90 z M 45 5.625 C 23.289 5.625 5.625 23.289 5.625 45 c 0 21.712 17.664 39.375 39.375 39.375 c 21.712 0 39.375 -17.663 39.375 -39.375 C 84.375 23.289 66.712 5.625 45 5.625 z" style="stroke: none; stroke-width: 1; stroke-dasharray: none; stroke-linecap: butt; stroke-linejoin: miter; stroke-miterlimit: 10; fill: rgb(101,101,102); fill-rule: nonzero; opacity: 1;" transform=" matrix(1 0 0 1 0 0) " stroke-linecap="round" />
</g>
	<g style="stroke: none; stroke-width: 0; stroke-dasharray: none; stroke-linecap: butt; stroke-linejoin: miter; stroke-miterlimit: 10; fill: none; fill-rule: nonzero; opacity: 1;" transform="translate(-99.89999999999998 -99.90000000000003) scale(2.22 2.22)" >
	<path d="M 87.935 21.894 c 0.626 -2.086 0 -3.619 -2.977 -3.619 h -9.846 c -2.504 0 -3.658 1.324 -4.283 2.785 c 0 0 -5.008 12.204 -12.101 20.132 c -2.294 2.295 -3.337 3.026 -4.59 3.026 c -0.625 0 -1.531 -0.731 -1.531 -2.816 V 21.894 c 0 -2.503 -0.727 -3.619 -2.813 -3.619 H 34.32 c -1.564 0 -2.506 1.162 -2.506 2.264 c 0 2.373 3.547 2.921 3.913 9.597 v 14.499 c 0 3.179 -0.574 3.757 -1.826 3.757 c -3.337 0 -11.457 -12.26 -16.273 -26.288 c -0.944 -2.727 -1.89 -3.828 -4.406 -3.828 H 3.376 C 0.562 18.275 0 19.599 0 21.059 c 0 2.608 3.337 15.543 15.542 32.65 c 8.136 11.682 19.599 18.016 30.031 18.016 c 6.258 0 7.033 -1.407 7.033 -3.83 v -8.829 c 0 -2.814 0.593 -3.375 2.575 -3.375 c 1.46 0 3.963 0.729 9.805 6.362 c 6.676 6.676 7.776 9.671 11.532 9.671 h 9.846 c 2.812 0 4.219 -1.407 3.408 -4.182 c -0.889 -2.767 -4.076 -6.781 -8.305 -11.538 c -2.295 -2.712 -5.738 -5.633 -6.781 -7.094 c -1.461 -1.877 -1.043 -2.711 0 -4.381 C 74.687 44.53 86.684 27.631 87.935 21.894" style="stroke: none; stroke-width: 1; stroke-dasharray: none; stroke-linecap: butt; stroke-linejoin: miter; stroke-miterlimit: 10; fill: rgb(101,101,102); fill-rule: evenodd; opacity: 1;" transform=" matrix(1 0 0 1 0 0) " stroke-linecap="round" />
</g>
</g>
</svg>